<?xml version="1.0" encoding="UTF-8" standalone="no"?><!DOCTYPE svg PUBLIC "-//W3C//DTD SVG 1.1//EN" "http://www.w3.org/Graphics/SVG/1.1/DTD/svg11.dtd"><!-- Generated by graphviz version 2.40.1 (20161225.0304)
 --><!-- Title: %0 Pages: 1 --><svg xmlns="http://www.w3.org/2000/svg" xmlns:xlink="http://www.w3.org/1999/xlink" width="371pt" height="310pt" viewBox="0.00 0.00 371.38 310.40">
<g id="graph0" class="graph" transform="scale(1 1) rotate(0) translate(4 306.4)">
<title>%0</title>
<polygon fill="#ffffff" stroke="transparent" points="-4,4 -4,-306.4 367.3752,-306.4 367.3752,4 -4,4"/>
<!-- I -->
<g id="node1" class="node">
<title>I</title>
<polygon fill="#00ffff" stroke="#000000" points="172,-213.6 118,-213.6 118,-177.6 172,-177.6 172,-213.6"/>
<text text-anchor="middle" x="145" y="-191.4" font-family="Times,serif" font-size="14.00" fill="#000000">I</text>
</g>
<!-- I&#45;&gt;I -->
<g id="edge1" class="edge">
<title>I-&gt;I</title>
<path fill="none" stroke="#000000" d="M172.2408,-203.8419C182.0239,-204.0192 190,-201.2719 190,-195.6 190,-192.1437 187.0382,-189.7734 182.5105,-188.4891"/>
<polygon fill="#000000" stroke="#000000" points="182.5639,-184.9739 172.2408,-187.3581 181.7975,-191.9318 182.5639,-184.9739"/>
<text text-anchor="middle" x="225.1876" y="-191.4" font-family="Times,serif" font-size="14.00" fill="#000000">7.74194e-05</text>
</g>
<!-- E -->
<g id="node2" class="node">
<title>E</title>
<polygon fill="#00ffff" stroke="#000000" points="248,-124.8 194,-124.8 194,-88.8 248,-88.8 248,-124.8"/>
<text text-anchor="middle" x="221" y="-102.6" font-family="Times,serif" font-size="14.00" fill="#000000">E</text>
</g>
<!-- I&#45;&gt;E -->
<g id="edge2" class="edge">
<title>I-&gt;E</title>
<path fill="none" stroke="#000000" d="M172.1831,-181.8234C181.6388,-175.9898 191.6952,-168.4725 199,-159.6 205.0535,-152.2473 209.659,-142.9933 213.0519,-134.2944"/>
<polygon fill="#000000" stroke="#000000" points="216.3609,-135.4348 216.3798,-124.84 209.758,-133.1106 216.3609,-135.4348"/>
<text text-anchor="middle" x="243.1876" y="-147" font-family="Times,serif" font-size="14.00" fill="#000000">7.74194e-05</text>
</g>
<!-- R -->
<g id="node4" class="node">
<title>R</title>
<ellipse fill="none" stroke="#000000" cx="71" cy="-18" rx="27" ry="18"/>
<text text-anchor="middle" x="71" y="-13.8" font-family="Times,serif" font-size="14.00" fill="#000000">R</text>
</g>
<!-- I&#45;&gt;R -->
<g id="edge6" class="edge">
<title>I-&gt;R</title>
<path fill="none" stroke="#000000" d="M138.8893,-177.2879C136.9993,-171.6187 134.9118,-165.3516 133,-159.6 117.4044,-112.6799 120.91,-97.8161 98,-54 95.8654,-49.9175 93.2815,-45.8056 90.5687,-41.8945"/>
<polygon fill="#000000" stroke="#000000" points="93.3045,-39.7073 84.5482,-33.7425 87.6737,-43.8659 93.3045,-39.7073"/>
<text text-anchor="middle" x="148.25" y="-102.6" font-family="Times,serif" font-size="14.00" fill="#000000">0.322581</text>
</g>
<!-- H -->
<g id="node5" class="node">
<title>H</title>
<polygon fill="#00ffff" stroke="#000000" points="54,-124.8 0,-124.8 0,-88.8 54,-88.8 54,-124.8"/>
<text text-anchor="middle" x="27" y="-102.6" font-family="Times,serif" font-size="14.00" fill="#000000">H</text>
</g>
<!-- I&#45;&gt;H -->
<g id="edge7" class="edge">
<title>I-&gt;H</title>
<path fill="none" stroke="#000000" d="M117.9367,-191.3301C85.9634,-185.6686 35.6846,-174.6145 24.5,-159.6 19.3553,-152.6936 18.3184,-143.7555 19.069,-135.2032"/>
<polygon fill="#000000" stroke="#000000" points="22.5572,-135.5587 20.7151,-125.1253 15.6488,-134.4303 22.5572,-135.5587"/>
<text text-anchor="middle" x="61.75" y="-147" font-family="Times,serif" font-size="14.00" fill="#000000">0.000290061</text>
</g>
<!-- E&#45;&gt;I -->
<g id="edge5" class="edge">
<title>E-&gt;I</title>
<path fill="none" stroke="#000000" d="M193.6614,-115.777C173.4508,-123.0313 148.4505,-133.5246 142.5,-142.8 137.9202,-149.9387 136.9731,-158.8048 137.6326,-167.2205"/>
<polygon fill="#000000" stroke="#000000" points="134.1707,-167.7366 139.0977,-177.1161 141.0953,-166.7113 134.1707,-167.7366"/>
<text text-anchor="middle" x="168.25" y="-147" font-family="Times,serif" font-size="14.00" fill="#000000">0.196078</text>
</g>
<!-- S -->
<g id="node3" class="node">
<title>S</title>
<polygon fill="#00ffff" stroke="#000000" points="252,-302.4 198,-302.4 198,-266.4 252,-266.4 252,-302.4"/>
<text text-anchor="middle" x="225" y="-280.2" font-family="Times,serif" font-size="14.00" fill="#000000">S</text>
</g>
<!-- S&#45;&gt;I -->
<g id="edge3" class="edge">
<title>S-&gt;I</title>
<path fill="none" stroke="#000000" d="M208.4239,-266.0006C196.762,-253.0559 180.9987,-235.5586 168.1049,-221.2464"/>
<polygon fill="#000000" stroke="#000000" points="170.5748,-218.759 161.2811,-213.672 165.3741,-223.4443 170.5748,-218.759"/>
<text text-anchor="middle" x="227.1876" y="-235.8" font-family="Times,serif" font-size="14.00" fill="#000000">7.74194e-05</text>
</g>
<!-- S&#45;&gt;E -->
<g id="edge4" class="edge">
<title>S-&gt;E</title>
<path fill="none" stroke="#000000" d="M251.2052,-266.1052C256.8707,-260.9877 262.2725,-254.9979 266,-248.4 289.3493,-207.0707 305.5378,-184.0223 282,-142.8 276.3979,-132.9889 266.96,-125.5831 257.1612,-120.1199"/>
<polygon fill="#000000" stroke="#000000" points="258.6719,-116.9623 248.1604,-115.6355 255.5503,-123.2277 258.6719,-116.9623"/>
<text text-anchor="middle" x="328.1876" y="-191.4" font-family="Times,serif" font-size="14.00" fill="#000000">7.74194e-05</text>
</g>
<!-- H&#45;&gt;R -->
<g id="edge8" class="edge">
<title>H-&gt;R</title>
<path fill="none" stroke="#000000" d="M28.6359,-88.4117C30.1395,-77.8823 33.0145,-64.6823 38.5,-54 40.9845,-49.1618 44.2844,-44.4731 47.8299,-40.1667"/>
<polygon fill="#000000" stroke="#000000" points="50.7152,-42.1926 54.8011,-32.4173 45.5111,-37.511 50.7152,-42.1926"/>
<text text-anchor="middle" x="68.75" y="-58.2" font-family="Times,serif" font-size="14.00" fill="#000000">0.0988142</text>
</g>
</g>
</svg>